<svg width="96" height="96" viewBox="0 0 96 96" xmlns="http://www.w3.org/2000/svg" style="background:#296498"><title>favicon-96x96</title><g fill="none" fill-rule="evenodd"><path d="M13 32h14v50H13V32zm27 0h14v50H40V32zm27 0h14v50H67V32z" fill="#FD6C6C"/><path d="M26 32h14v50H26V32zm27 0h14v50H53V32zM20 20.8l-4.114 2.863 1.451-4.798-3.994-3.028 5.011-.102L20 11l1.646 4.735 5.011.102-3.994 3.028 1.451 4.798L20 20.8zm27.055 1.417l-6.449 4.488 2.275-7.52-6.26-4.747 7.854-.16 2.58-7.42 2.58 7.42 7.854.16-6.26 4.747 2.275 7.52-6.45-4.488zm27.028-1.56L69.97 23.52l1.452-4.798-3.995-3.028 5.012-.102 1.645-4.735 1.646 4.735 5.012.102-3.995 3.028 1.452 4.798-4.115-2.863z" fill="#FFF"/></g></svg>